<?xml version="1.0" standalone="no"?>
<!DOCTYPE svg PUBLIC "-//W3C//DTD SVG 20010904//EN"
 "http://www.w3.org/TR/2001/REC-SVG-20010904/DTD/svg10.dtd">
<svg version="1.0" xmlns="http://www.w3.org/2000/svg"
 width="300.000000pt" height="300.000000pt" viewBox="0 0 300.000000 300.000000"
 preserveAspectRatio="xMidYMid meet">
<metadata>
Created by potrace 1.10, written by Peter Selinger 2001-2011
</metadata>
<g transform="translate(0.000000,300.000000) scale(0.100000,-0.100000)"
fill="#000000" stroke="none">
<path d="M849 2485 c-26 -8 -62 -29 -80 -46 -27 -26 -49 -35 -108 -45 -41 -7
-87 -18 -103 -25 -29 -12 -58 -54 -58 -83 0 -9 -15 -37 -34 -63 -18 -27 -43
-74 -55 -105 -52 -142 -117 -454 -147 -708 -22 -181 -25 -558 -6 -642 35 -152
184 -255 315 -219 82 23 121 68 196 225 38 78 90 193 117 256 26 63 49 117 51
119 1 1 27 -9 58 -24 101 -50 224 -34 321 40 32 24 38 25 197 25 l164 0 43
-34 c57 -45 113 -60 204 -54 54 4 86 12 120 31 l46 25 21 -46 c11 -26 45 -101
74 -167 156 -354 200 -405 339 -393 99 9 178 67 225 167 l26 56 -1 285 c0 317
-17 480 -74 752 -49 230 -88 346 -145 423 -12 17 -27 48 -33 71 -7 22 -20 48
-30 58 -33 29 -258 65 -322 51 -17 -4 -58 -31 -90 -59 -93 -83 -107 -86 -490
-86 l-325 -1 2 23 c4 44 -26 105 -66 132 -91 63 -256 92 -352 61z m266 -39
c31 -14 69 -35 85 -46 50 -36 63 -145 16 -138 -18 3 -20 9 -18 40 5 53 -19 90
-80 123 -48 27 -62 30 -145 30 -82 0 -94 -2 -116 -23 -18 -17 -34 -23 -58 -20
l-34 3 28 19 c80 54 218 60 322 12z m-8 -34 c23 -12 49 -32 57 -44 15 -21 22
-89 11 -100 -3 -3 -31 -1 -62 4 -67 11 -147 51 -173 89 -11 14 -34 32 -51 39
l-31 13 24 14 c36 21 172 12 225 -15z m-179 -66 c53 -49 111 -81 166 -91 23
-5 34 -11 28 -17 -11 -11 -94 19 -159 59 -65 40 -107 53 -167 53 -78 -1 -203
-26 -241 -49 -38 -22 -44 -14 -20 23 24 36 137 63 273 65 73 1 73 1 120 -43z
m1466 29 c71 -15 100 -33 109 -66 6 -23 6 -23 -35 0 -43 25 -132 41 -232 41
-75 0 -84 -2 -165 -46 -100 -55 -161 -78 -173 -66 -5 5 19 16 53 26 64 17 126
55 168 100 23 24 30 26 115 26 50 0 122 -7 160 -15z m-1445 -88 c33 -20 84
-44 111 -54 l50 -18 0 -203 c0 -224 7 -258 60 -291 27 -16 25 -16 -52 -16 -66
0 -77 2 -72 15 44 101 45 218 3 305 -35 74 -112 147 -184 174 -275 104 -539
-173 -434 -455 60 -159 268 -261 412 -201 42 18 42 19 22 -47 -45 -148 4 -267
138 -338 61 -33 174 -32 240 1 26 14 55 33 64 43 14 16 35 18 200 18 l183 0
51 -35 c112 -77 224 -72 339 13 19 15 41 27 49 27 8 0 17 7 19 15 5 13 3 13
-13 0 -13 -10 -10 0 11 35 25 43 29 59 28 120 -1 44 -9 90 -22 123 -19 48 -19
53 -4 47 175 -74 369 -1 454 173 29 58 33 75 32 147 0 105 -28 177 -95 246
-73 75 -143 104 -249 104 -76 0 -93 -4 -152 -33 -82 -40 -149 -111 -178 -190
-29 -76 -25 -205 9 -270 l22 -43 -28 7 c-15 3 -33 7 -39 9 -6 2 -30 -1 -55 -5
l-44 -8 29 21 c50 36 56 66 56 292 0 171 2 205 14 205 8 0 63 25 123 56 l108
55 115 -4 c138 -6 179 -17 230 -63 79 -71 132 -213 189 -499 45 -230 65 -431
65 -675 1 -205 0 -217 -22 -265 -26 -55 -51 -87 -62 -80 -4 3 -14 -3 -21 -12
-12 -14 -12 -16 1 -9 8 4 5 -2 -8 -13 -30 -26 -124 -61 -184 -68 -57 -7 -101
9 -127 46 -10 14 -64 127 -120 251 -56 124 -105 228 -110 233 -4 4 -35 -7 -68
-24 -104 -54 -223 -41 -322 35 -34 26 -38 26 -195 26 l-161 0 -65 -40 c-112
-69 -216 -74 -317 -15 -23 14 -44 22 -46 18 -3 -5 -39 -84 -80 -178 -123 -278
-134 -301 -167 -328 -39 -33 -91 -35 -181 -7 -150 46 -220 137 -236 305 -8 90
15 416 42 591 41 260 108 532 151 616 22 42 73 97 107 114 51 27 149 44 238
41 79 -3 91 -6 148 -40z m926 -47 c4 -7 -120 -10 -365 -10 -245 0 -369 3 -365
10 8 14 722 14 730 0z m15 -236 l0 -216 -37 -38 -38 -37 -152 -7 c-84 -3 -221
-3 -305 0 l-152 7 -35 33 -36 32 -3 221 -3 221 380 0 381 0 0 -216z m536 186
c69 -34 125 -89 160 -157 25 -51 29 -69 29 -143 0 -73 -4 -93 -28 -142 -80
-163 -274 -237 -431 -165 -32 15 -60 27 -62 27 -2 0 6 -16 17 -34 26 -45 35
-133 19 -190 -23 -85 -107 -157 -198 -172 -131 -21 -272 104 -272 242 0 82 59
175 135 213 64 32 114 37 174 17 27 -9 52 -16 55 -16 4 0 -7 24 -23 53 -16 28
-35 77 -41 108 -34 154 75 326 240 380 48 16 173 4 226 -21z m-1551 -18 c65
-31 121 -86 157 -154 20 -37 23 -58 23 -143 0 -91 -3 -105 -28 -149 -15 -27
-26 -50 -25 -52 2 -1 31 5 64 13 56 14 67 14 118 -1 131 -38 203 -172 166
-307 -13 -47 -72 -114 -124 -141 -54 -29 -155 -31 -206 -4 -80 42 -128 112
-137 200 -5 47 2 79 32 149 7 16 3 15 -36 -5 -36 -19 -59 -23 -134 -23 -106 0
-162 22 -225 91 -70 77 -85 116 -85 229 0 85 3 106 23 143 62 116 166 182 287
182 56 0 82 -6 130 -28z m890 -500 c-113 -69 -171 -268 -111 -385 l23 -47
-164 0 c-91 0 -163 3 -161 8 36 69 40 90 35 170 -7 113 -48 201 -115 243 l-46
29 285 0 c279 0 284 0 254 -18z m-855 -366 c12 -20 41 -50 65 -66 132 -91 303
-44 374 103 33 67 40 60 16 -19 -31 -106 -127 -174 -244 -174 -64 0 -153 28
-150 47 3 19 -2 33 -12 33 -8 0 -8 -5 1 -15 8 -9 8 -15 2 -15 -34 0 -103 136
-101 199 0 21 3 17 13 -16 8 -23 23 -58 36 -77z m806 -28 c78 -81 191 -104
289 -58 28 13 56 24 63 23 7 -1 11 1 8 4 -3 3 7 22 23 42 16 20 36 56 44 81
l16 45 1 -36 c0 -45 -43 -131 -83 -165 -98 -83 -241 -87 -342 -10 -41 32 -84
113 -90 172 l-5 49 19 -53 c10 -30 36 -72 57 -94z m1039 -470 c-23 -136 -130
-238 -250 -238 -48 0 -111 26 -136 56 -13 15 -12 16 11 8 67 -24 208 10 283
68 22 18 48 53 65 89 15 32 29 59 30 59 2 0 1 -19 -3 -42z m-2402 -94 c74 -63
218 -106 285 -86 l37 11 -32 -29 c-31 -28 -87 -50 -129 -50 -37 0 -109 30
-146 60 -43 35 -85 116 -94 180 l-6 45 27 -52 c14 -29 41 -65 58 -79z"/>
<path d="M2145 2261 c-22 -10 -49 -26 -60 -35 -20 -16 -20 -16 0 -10 20 6 20
6 0 -11 -35 -29 -55 -37 -55 -23 -1 7 -12 0 -25 -16 -35 -44 -20 -51 28 -13
52 41 109 76 145 88 25 8 25 9 2 5 -14 -2 -34 -7 -45 -11 -16 -7 -18 -6 -8 5
7 8 41 16 75 18 77 5 102 22 33 22 -28 0 -68 -9 -90 -19z"/>
<path d="M650 2263 c0 -5 29 -9 65 -9 36 -1 62 2 59 7 -6 11 -124 12 -124 2z"/>
<path d="M2420 2246 c0 -8 82 -47 88 -42 2 3 -7 11 -20 19 -27 17 -68 31 -68
23z"/>
<path d="M2641 1804 c-1 -36 12 -107 34 -179 l15 -50 -5 45 c-10 79 -43 217
-44 184z"/>
<path d="M2238 1509 c21 -6 44 -7 60 -1 22 7 16 9 -33 10 -54 0 -57 -1 -27 -9z"/>
<path d="M306 1398 c-4 -35 -9 -81 -13 -103 -3 -22 -2 -37 2 -33 10 9 33 198
24 198 -4 0 -10 -28 -13 -62z"/>
<path d="M2271 1175 c-1 -66 41 -261 59 -279 9 -8 11 -6 7 9 -23 81 -39 158
-51 238 -13 91 -14 91 -15 32z"/>
<path d="M2110 1193 c0 -3 7 -11 15 -17 9 -6 27 -41 40 -76 21 -54 24 -59 19
-25 -7 46 -41 112 -61 119 -7 3 -13 3 -13 -1z"/>
<path d="M875 1170 c-11 -18 -35 -113 -30 -118 3 -3 7 1 9 9 2 8 11 36 20 63
15 48 16 70 1 46z"/>
<path d="M2731 940 c-1 -21 -20 -81 -55 -175 -8 -20 -8 -20 9 0 22 27 58 148
52 177 -4 22 -4 22 -6 -2z"/>
<path d="M2360 803 c0 -16 44 -96 47 -86 2 6 -5 30 -17 52 -19 38 -30 50 -30
34z"/>
<path d="M1250 2142 c-41 -12 -54 -76 -22 -105 40 -37 102 -7 102 49 0 33 -47
67 -80 56z m44 -28 c31 -31 13 -74 -31 -74 -55 0 -47 83 9 89 4 1 14 -6 22
-15z"/>
<path d="M1722 2139 c-33 -13 -49 -53 -32 -84 26 -48 89 -45 110 5 21 52 -25
98 -78 79z m50 -26 c32 -29 16 -73 -27 -73 -42 0 -59 44 -29 74 20 20 33 20
56 -1z"/>
<path d="M1721 2090 c-1 -18 4 -26 17 -26 10 0 18 8 18 18 0 11 -6 16 -12 14
-7 -3 -15 0 -18 7 -2 7 -5 1 -5 -13z"/>
<path d="M1233 1900 c-25 -10 -31 -48 -11 -68 7 -7 30 -12 53 -12 46 0 65 13
65 47 0 36 -57 53 -107 33z m76 -19 c25 -16 4 -41 -34 -41 -23 0 -38 5 -42 16
-7 18 12 34 42 34 11 0 26 -4 34 -9z"/>
<path d="M1698 1899 c-21 -12 -24 -49 -6 -67 7 -7 31 -12 55 -12 46 0 70 24
58 59 -9 29 -72 41 -107 20z m81 -18 c25 -16 4 -41 -34 -41 -23 0 -38 5 -42
16 -7 18 12 34 42 34 11 0 26 -4 34 -9z"/>
<path d="M1400 1774 c-10 -11 -11 -20 -3 -32 14 -24 189 -30 218 -8 16 12 18
18 9 33 -16 26 -204 32 -224 7z m203 -19 c-3 -11 -157 -20 -180 -11 -8 3 -11
11 -8 16 9 14 191 9 188 -5z"/>
<path d="M2244 2196 c-85 -37 -86 -149 -1 -192 99 -52 196 83 120 165 -34 36
-77 45 -119 27z m85 -21 c32 -16 41 -33 41 -75 0 -42 -9 -59 -41 -75 -40 -21
-63 -19 -98 11 -25 20 -31 34 -31 64 0 30 6 44 31 64 35 30 58 32 98 11z"/>
<path d="M2255 2120 c-14 -27 -25 -54 -25 -60 0 -6 25 -10 60 -10 33 0 60 3
60 8 0 10 -59 112 -65 112 -3 0 -16 -22 -30 -50z m54 -14 c12 -18 21 -35 21
-37 0 -2 -18 -4 -40 -4 -22 0 -40 3 -40 7 0 6 33 68 37 68 1 0 11 -15 22 -34z"/>
<path d="M2030 1992 c-26 -12 -39 -28 -49 -58 -13 -38 -13 -44 6 -80 14 -27
30 -42 53 -50 127 -42 198 130 80 191 -37 19 -47 19 -90 -3z m101 -31 c35 -35
38 -77 9 -114 -52 -65 -150 -23 -150 64 0 30 53 79 85 79 16 0 38 -12 56 -29z"/>
<path d="M2039 1933 c-2 -15 -3 -40 -1 -55 3 -26 7 -28 48 -28 l45 0 -3 53 -3
52 -41 3 c-39 3 -42 1 -45 -25z m71 -30 c0 -41 -1 -43 -30 -43 -29 0 -30 2
-30 44 0 43 1 45 30 44 29 -1 30 -3 30 -45z"/>
<path d="M2464 2001 c-60 -26 -83 -114 -44 -164 73 -93 215 -18 181 95 -17 57
-85 91 -137 69z m104 -47 c47 -53 9 -138 -61 -138 -84 0 -119 95 -55 149 38
32 81 29 116 -11z"/>
<path d="M2467 1915 c-15 -31 -27 -58 -27 -60 0 -9 119 -5 124 3 6 10 -51 112
-62 112 -4 0 -20 -25 -35 -55z m83 -49 c0 -1 -20 -1 -45 -1 -25 0 -45 1 -45 3
0 1 9 21 21 44 l21 41 24 -43 c13 -23 24 -43 24 -44z"/>
<path d="M2211 1769 c-88 -88 17 -222 129 -164 37 19 50 43 50 95 0 60 -41
100 -103 100 -37 0 -51 -6 -76 -31z m133 -10 c20 -16 26 -29 26 -60 0 -53 -35
-89 -85 -89 -25 0 -44 8 -60 25 -78 77 32 192 119 124z"/>
<path d="M2240 1753 c0 -5 9 -18 20 -28 20 -18 20 -18 -7 -47 -32 -33 -20 -38
15 -6 l23 23 19 -25 c10 -14 22 -21 26 -17 4 4 -3 18 -16 32 -21 22 -21 25 -6
40 9 9 16 22 16 28 -1 7 -10 1 -21 -12 l-20 -24 -24 23 c-14 13 -25 19 -25 13z"/>
<path d="M1926 1640 c29 -4 57 -11 63 -14 6 -4 11 -3 11 2 0 13 -37 22 -85 21
-38 -1 -38 -2 11 -9z"/>
<path d="M1835 1615 c-42 -20 -59 -35 -84 -75 -25 -42 -28 -127 -6 -169 20
-40 69 -78 115 -92 79 -24 173 30 206 118 15 39 16 52 5 91 -16 62 -43 96 -94
121 -50 24 -99 26 -142 6z m154 -34 c42 -30 64 -76 65 -132 0 -130 -152 -203
-249 -118 -43 38 -59 78 -53 138 11 118 142 179 237 112z"/>
<path d="M1925 1551 c-3 -5 5 -11 17 -13 14 -2 30 -16 40 -38 17 -34 18 -34
18 -8 0 17 -10 34 -26 47 -29 23 -40 26 -49 12z"/>
<path d="M1835 1525 c-40 -39 -29 -52 12 -14 21 18 40 35 42 37 2 1 -3 2 -13
2 -9 0 -28 -11 -41 -25z"/>
<path d="M1800 1441 c0 -10 9 -30 20 -43 20 -26 76 -55 86 -45 4 3 -10 13 -30
21 -26 11 -41 26 -51 51 -17 39 -25 44 -25 16z"/>
<path d="M1967 1394 c-37 -42 -40 -57 -6 -31 19 14 53 66 48 71 -2 2 -21 -16
-42 -40z"/>
<path d="M666 2108 c-10 -14 -16 -44 -16 -80 l0 -58 -59 0 c-75 0 -91 -18 -91
-102 0 -72 22 -101 69 -92 17 4 42 3 56 0 23 -6 25 -11 25 -64 0 -83 13 -97
93 -97 86 0 97 10 97 91 0 71 5 75 78 72 24 -1 48 4 54 10 7 7 14 39 16 72 6
87 -10 108 -85 112 l-58 3 -3 65 c-2 35 -8 70 -14 77 -7 8 -35 13 -79 13 -59
0 -70 -3 -83 -22z m155 -71 c4 -43 11 -72 20 -78 8 -5 37 -9 65 -9 59 0 64 -6
64 -76 0 -71 -12 -84 -74 -84 -31 0 -58 -5 -64 -13 -6 -7 -12 -40 -14 -72 -3
-60 -3 -60 -40 -69 -23 -6 -50 -6 -70 0 -32 9 -33 11 -36 69 -2 33 -8 65 -14
72 -6 8 -32 13 -62 13 -29 0 -57 5 -64 12 -12 12 -17 104 -6 132 5 12 20 16
63 16 31 0 62 5 69 12 7 7 12 37 12 68 0 31 5 61 12 68 8 8 35 12 73 10 l60
-3 6 -68z"/>
<path d="M691 2071 c-6 -11 -11 -38 -11 -60 0 -52 -20 -71 -74 -71 -52 0 -66
-13 -66 -61 0 -61 7 -69 60 -69 60 0 80 -20 80 -82 0 -57 15 -70 77 -66 l48 3
5 57 c3 31 11 63 18 70 7 7 36 15 65 18 l52 5 3 54 c4 63 -4 71 -64 71 -53 0
-68 18 -74 89 l-5 56 -52 3 c-43 3 -54 0 -62 -17z m107 -52 c4 -69 24 -91 90
-99 l47 -5 0 -45 0 -45 -51 -3 c-64 -4 -82 -21 -86 -87 l-3 -50 -46 -3 -46 -3
-5 51 c-7 68 -33 95 -91 95 l-42 0 -3 48 -3 47 46 0 c65 0 95 31 95 98 0 27 3
52 7 56 4 4 25 6 48 4 l40 -3 3 -56z"/>
<path d="M1035 1607 c-104 -59 -124 -198 -40 -282 82 -81 205 -66 272 34 33
48 32 129 -2 187 -46 78 -150 106 -230 61z m172 -25 c45 -32 66 -84 61 -149
-4 -44 -11 -60 -39 -89 -45 -46 -95 -61 -151 -45 -112 34 -150 162 -76 256 45
57 144 70 205 27z"/>
<path d="M1130 1541 c20 -4 41 -11 48 -15 7 -4 12 -3 12 2 0 14 -26 22 -63 21
l-32 -1 35 -7z"/>
<path d="M1034 1515 c-24 -37 -13 -39 20 -5 20 22 23 30 12 30 -9 0 -23 -11
-32 -25z"/>
<path d="M1200 1416 c0 -8 -15 -26 -32 -40 -18 -14 -27 -26 -20 -26 16 0 72
54 72 69 0 6 -4 11 -10 11 -5 0 -10 -6 -10 -14z"/>
<path d="M1020 1411 c0 -16 49 -61 67 -61 14 0 11 5 -10 18 -15 9 -30 25 -33
34 -5 18 -24 25 -24 9z"/>
<path d="M1437 1660 c23 -5 54 -5 70 0 21 6 12 8 -42 8 -64 0 -66 -1 -28 -8z"/>
<path d="M1340 1636 c14 -7 30 -9 35 -5 6 4 19 9 30 12 11 2 -5 5 -35 6 -51 1
-53 0 -30 -13z"/>
<path d="M1432 1557 c-12 -12 -18 -27 -14 -33 4 -6 13 -4 25 8 11 12 13 18 5
18 -9 0 -8 3 2 10 8 5 12 11 9 14 -3 3 -15 -4 -27 -17z"/>
<path d="M1452 1515 c-27 -22 -32 -34 -32 -70 0 -36 5 -48 31 -69 41 -35 83
-34 120 3 56 56 27 145 -52 157 -28 5 -41 1 -67 -21z m103 -20 c30 -30 32 -64
4 -99 -40 -51 -119 -20 -119 47 0 37 7 49 35 65 31 18 54 14 80 -13z"/>
<path d="M1560 1349 c-19 -10 -43 -19 -53 -19 -16 0 -17 -2 -3 -15 14 -15 50
-10 41 5 -3 5 3 11 14 15 11 3 25 12 31 20 16 19 13 18 -30 -6z"/>
</g>
</svg>
